TITLE ""
FILE "P1Q_t_0920-0929.mp3" MP3
  TRACK 01 AUDIO
    TITLE "P1Q_t_0920-0929_01"
    INDEX 01 00:00:00
  TRACK 02 AUDIO
    TITLE "P1Q_t_0920-0929_02"
    INDEX 01 00:01:37
  TRACK 03 AUDIO
    TITLE "P1Q_t_0920-0929_03"
    INDEX 01 00:01:59
  TRACK 04 AUDIO
    TITLE "P1Q_t_0920-0929_04"
    INDEX 01 00:03:11
  TRACK 05 AUDIO
    TITLE "P1Q_t_0920-0929_05"
    INDEX 01 00:03:32
  TRACK 06 AUDIO
    TITLE "P1Q_t_0920-0929_06"
    INDEX 01 00:09:41
  TRACK 07 AUDIO
    TITLE "P1Q_t_0920-0929_07"
    INDEX 01 00:10:13
  TRACK 08 AUDIO
    TITLE "P1Q_t_0920-0929_08"
    INDEX 01 00:11:26
  TRACK 09 AUDIO
    TITLE "P1Q_t_0920-0929_09"
    INDEX 01 00:11:47
  TRACK 10 AUDIO
    TITLE "P1Q_t_0920-0929_10"
    INDEX 01 00:15:16
  TRACK 11 AUDIO
    TITLE "P1Q_t_0920-0929_11"
    INDEX 01 00:15:37
  TRACK 12 AUDIO
    TITLE "P1Q_t_0920-0929_12"
    INDEX 01 00:19:08
  TRACK 13 AUDIO
    TITLE "P1Q_t_0920-0929_13"
    INDEX 01 00:19:53
  TRACK 14 AUDIO
    TITLE "P1Q_t_0920-0929_14"
    INDEX 01 00:20:52
  TRACK 15 AUDIO
    TITLE "P1Q_t_0920-0929_15"
    INDEX 01 00:21:07
  TRACK 16 AUDIO
    TITLE "P1Q_t_0920-0929_16"
    INDEX 01 00:22:51
  TRACK 17 AUDIO
    TITLE "P1Q_t_0920-0929_17"
    INDEX 01 00:22:71
  TRACK 18 AUDIO
    TITLE "P1Q_t_0920-0929_18"
    INDEX 01 00:27:39
  TRACK 19 AUDIO
    TITLE "P1Q_t_0920-0929_19"
    INDEX 01 00:28:13
  TRACK 20 AUDIO
    TITLE "P1Q_t_0920-0929_20"
    INDEX 01 00:29:28
  TRACK 21 AUDIO
    TITLE "P1Q_t_0920-0929_21"
    INDEX 01 00:29:51
  TRACK 22 AUDIO
    TITLE "P1Q_t_0920-0929_22"
    INDEX 01 00:33:29
  TRACK 23 AUDIO
    TITLE "P1Q_t_0920-0929_23"
    INDEX 01 00:33:49
  TRACK 24 AUDIO
    TITLE "P1Q_t_0920-0929_24"
    INDEX 01 00:38:15
  TRACK 25 AUDIO
    TITLE "P1Q_t_0920-0929_25"
    INDEX 01 00:38:62
  TRACK 26 AUDIO
    TITLE "P1Q_t_0920-0929_26"
    INDEX 01 00:39:69
  TRACK 27 AUDIO
    TITLE "P1Q_t_0920-0929_27"
    INDEX 01 00:40:16
  TRACK 28 AUDIO
    TITLE "P1Q_t_0920-0929_28"
    INDEX 01 00:43:06
  TRACK 29 AUDIO
    TITLE "P1Q_t_0920-0929_29"
    INDEX 01 00:43:26
  TRACK 30 AUDIO
    TITLE "P1Q_t_0920-0929_30"
    INDEX 01 00:47:49
  TRACK 31 AUDIO
    TITLE "P1Q_t_0920-0929_31"
    INDEX 01 00:48:21
  TRACK 32 AUDIO
    TITLE "P1Q_t_0920-0929_32"
    INDEX 01 00:49:24
  TRACK 33 AUDIO
    TITLE "P1Q_t_0920-0929_33"
    INDEX 01 00:49:48
  TRACK 34 AUDIO
    TITLE "P1Q_t_0920-0929_34"
    INDEX 01 00:51:68
  TRACK 35 AUDIO
    TITLE "P1Q_t_0920-0929_35"
    INDEX 01 00:52:13
  TRACK 36 AUDIO
    TITLE "P1Q_t_0920-0929_36"
    INDEX 01 00:56:28
  TRACK 37 AUDIO
    TITLE "P1Q_t_0920-0929_37"
    INDEX 01 00:56:75
  TRACK 38 AUDIO
    TITLE "P1Q_t_0920-0929_38"
    INDEX 01 00:58:23
  TRACK 39 AUDIO
    TITLE "P1Q_t_0920-0929_39"
    INDEX 01 00:58:45
  TRACK 40 AUDIO
    TITLE "P1Q_t_0920-0929_40"
    INDEX 01 01:02:49
  TRACK 41 AUDIO
    TITLE "P1Q_t_0920-0929_41"
    INDEX 01 01:02:68
  TRACK 42 AUDIO
    TITLE "P1Q_t_0920-0929_42"
    INDEX 01 01:07:05
  TRACK 43 AUDIO
    TITLE "P1Q_t_0920-0929_43"
    INDEX 01 01:07:54
  TRACK 44 AUDIO
    TITLE "P1Q_t_0920-0929_44"
    INDEX 01 01:08:75
  TRACK 45 AUDIO
    TITLE "P1Q_t_0920-0929_45"
    INDEX 01 01:09:19
  TRACK 46 AUDIO
    TITLE "P1Q_t_0920-0929_46"
    INDEX 01 01:12:41
  TRACK 47 AUDIO
    TITLE "P1Q_t_0920-0929_47"
    INDEX 01 01:12:61
  TRACK 48 AUDIO
    TITLE "P1Q_t_0920-0929_48"
    INDEX 01 01:17:66
  TRACK 49 AUDIO
    TITLE "P1Q_t_0920-0929_49"
    INDEX 01 01:18:38
  TRACK 50 AUDIO
    TITLE "P1Q_t_0920-0929_50"
    INDEX 01 01:19:45
  TRACK 51 AUDIO
    TITLE "P1Q_t_0920-0929_51"
    INDEX 01 01:19:67
  TRACK 52 AUDIO
    TITLE "P1Q_t_0920-0929_52"
    INDEX 01 01:23:33
  TRACK 53 AUDIO
    TITLE "P1Q_t_0920-0929_53"
    INDEX 01 01:23:53
  TRACK 54 AUDIO
    TITLE "P1Q_t_0920-0929_54"
    INDEX 01 01:29:14
  TRACK 55 AUDIO
    TITLE "P1Q_t_0920-0929_55"
    INDEX 01 01:29:63
  TRACK 56 AUDIO
    TITLE "P1Q_t_0920-0929_56"
    INDEX 01 01:31:07
  TRACK 57 AUDIO
    TITLE "P1Q_t_0920-0929_57"
    INDEX 01 01:31:29
  TRACK 58 AUDIO
    TITLE "P1Q_t_0920-0929_58"
    INDEX 01 01:35:68
  TRACK 59 AUDIO
    TITLE "P1Q_t_0920-0929_59"
    INDEX 01 01:36:12
  TRACK 60 AUDIO
    TITLE "P1Q_t_0920-0929_60"
    INDEX 01 01:41:49
